<?xml version="1.0" encoding="utf-8"?>
<!-- Generator: Adobe Illustrator 25.1.0, SVG Export Plug-In . SVG Version: 6.00 Build 0)  -->
<svg version="1.1"
	 id="Calque_1" inkscape:export-filename="/media/psf/Documents/UNIT/Portail UNIT/Refonte 2016/logo-Unit.png" inkscape:export-xdpi="599.40918" inkscape:export-ydpi="599.40918" inkscape:version="0.48.4 r9939" sodipodi:docname="logo-Unit.svg" xmlns:cc="http://creativecommons.org/ns#" xmlns:dc="http://purl.org/dc/elements/1.1/" xmlns:inkscape="http://www.inkscape.org/namespaces/inkscape" xmlns:rdf="http://www.w3.org/1999/02/22-rdf-syntax-ns#" xmlns:sodipodi="http://sodipodi.sourceforge.net/DTD/sodipodi-0.dtd" xmlns:svg="http://www.w3.org/2000/svg"
	 xmlns="http://www.w3.org/2000/svg" xmlns:xlink="http://www.w3.org/1999/xlink" x="0px" y="0px" viewBox="0 0 198 38.3"
	 style="enable-background:new 0 0 198 38.3;" xml:space="preserve">
<style type="text/css">
	.st0{fill:#369BD1;}
</style>
<sodipodi:namedview  bordercolor="#666666" borderopacity="1" fit-margin-bottom="0" fit-margin-left="0" fit-margin-right="0" fit-margin-top="0" gridtolerance="10" guidetolerance="10" id="namedview125" inkscape:current-layer="Calque_1" inkscape:cx="239.77412" inkscape:cy="-2.4571637" inkscape:pageopacity="0" inkscape:pageshadow="2" inkscape:window-height="1026" inkscape:window-maximized="1" inkscape:window-width="1617" inkscape:window-x="63" inkscape:window-y="24" inkscape:zoom="2.2425732" objecttolerance="10" pagecolor="#ffffff" showgrid="false">
	</sodipodi:namedview>
<g id="g3" transform="translate(-58.233759,-380.021)">
	<g id="g5">
		<polygon id="polygon7" points="153.8,380.2 153.8,418.1 161.4,418.1 161.4,395.3 161.4,391.7 184.1,418.1 191.7,418.1 
			191.7,380.2 184.1,380.2 184.1,406.8 161.4,380.2 		"/>
		<polygon id="polygon9" points="201.8,380.2 209.7,380.2 209.7,387.8 209.7,387.8 209.7,410.5 209.7,410.5 209.7,418.1 
			201.8,418.1 201.8,410.5 201.8,387.8 		"/>
		<polygon id="polygon11" points="218.4,387.8 218.4,380.2 256.2,380.2 256.2,387.8 241.1,387.8 241.1,418.1 233.5,418.1 
			233.5,387.8 		"/>
		<path id="path13" inkscape:connector-curvature="0" class="st0" d="M86.3,408.5L86.3,408.5c-0.3-0.3-0.2-0.9,0.2-1.3l9.9-10.4
			c-0.1-1.1-0.4-2.2-0.7-3.2l-20.8,18.6c-0.4,0.4-1,0.5-1.3,0.2s-0.2-0.9,0.2-1.3L94,389.7c-0.4-0.7-0.9-1.4-1.4-2.1l-24.2,21.6
			c-0.4,0.4-1,0.5-1.3,0.2v0c-0.3-0.3-0.3-0.9,0.2-1.3l22.4-23.3c0,0,0.1,0,0.1-0.1c-0.6-0.6-1.3-1.1-2-1.5l-22.2,19.8
			c-0.4,0.4-1,0.5-1.3,0.2v0c-0.3-0.3-0.2-0.9,0.2-1.3l19.6-20.4c-1-0.4-2-0.7-3.1-0.9L67.4,392c-0.4,0.4-1,0.5-1.3,0.2
			c-0.3-0.3-0.2-0.9,0.2-1.3L76.4,380c-4.6,0.2-9.1,2.1-12.6,5.6c-7.5,7.5-7.5,19.6,0,27.1c7.5,7.5,19.6,7.5,27.1,0
			c3.3-3.3,5.2-7.6,5.5-11.9l-8.8,7.5C87.3,408.7,86.7,408.8,86.3,408.5"/>
		<polygon id="polygon15" points="138.7,410.4 138.7,380.1 146.3,380.1 146.3,417.9 108.4,417.9 108.4,380.1 116,380.1 116,410.4 		
			"/>
	</g>
</g>
</svg>
